<?xml version="1.0" standalone="no"?>
<!DOCTYPE svg PUBLIC "-//W3C//DTD SVG 20010904//EN"
 "http://www.w3.org/TR/2001/REC-SVG-20010904/DTD/svg10.dtd">
<svg version="1.0" xmlns="http://www.w3.org/2000/svg"
 width="503.000000pt" height="503.000000pt" viewBox="0 0 503.000000 503.000000"
 preserveAspectRatio="xMidYMid meet">
<metadata>
Created by potrace 1.11, written by Peter Selinger 2001-2013
</metadata>
<g transform="translate(0.000000,503.000000) scale(0.100000,-0.100000)"
fill="#000000" stroke="none">
<path d="M1031 4311 l-465 -199 -45 -90 c-45 -88 -50 -93 -217 -240 -94 -82
-196 -180 -227 -217 l-56 -68 19 -36 c10 -20 47 -64 82 -98 60 -59 68 -63 161
-88 112 -30 162 -28 240 12 58 29 73 25 24 -6 -73 -45 -70 -47 111 -65 163
-17 174 -17 445 3 154 12 292 21 308 21 26 0 37 11 96 103 36 56 70 107 75
112 6 6 8 -34 7 -105 l-2 -115 119 -53 118 -53 45 20 c25 11 47 18 49 16 2 -1
-9 -27 -23 -56 l-26 -54 65 -415 64 -415 225 -630 224 -630 -61 -6 c-34 -4
-119 -8 -191 -9 -71 -1 -157 -5 -190 -9 l-59 -6 -38 -185 c-20 -102 -37 -188
-38 -192 0 -9 412 -8 734 1 l219 6 87 261 87 261 -9 459 -10 459 -94 608 c-52
335 -94 613 -92 618 2 5 63 -266 137 -601 74 -336 137 -610 140 -610 3 0 65
160 136 355 72 195 134 355 139 355 9 0 675 -354 672 -357 -1 -1 -147 61 -325
138 -177 78 -324 139 -325 137 -2 -1 -60 -174 -129 -383 l-125 -380 -5 -426
-6 -426 316 -94 c174 -52 309 -95 302 -96 -8 -2 -157 12 -332 30 -175 19 -320
30 -322 27 -9 -14 -135 -343 -133 -345 8 -7 1784 -30 1788 -24 3 4 72 346 154
761 l149 753 -438 835 c-241 459 -443 840 -449 846 -6 7 -246 132 -533 279
l-522 266 -433 20 -433 20 -356 100 c-195 54 -357 99 -360 99 -2 -1 -213 -90
-468 -199z m567 -39 c-47 -2 -61 -7 -77 -28 -19 -24 -19 -27 -4 -60 20 -41 26
-42 51 -10 l19 25 25 -62 25 -61 -25 -72 c-14 -39 -34 -77 -44 -83 -17 -10
-18 -6 -18 53 0 59 -3 68 -51 141 -46 72 -50 82 -45 120 6 34 12 44 38 57 28
13 39 13 97 -1 l66 -16 -57 -3z m-902 -318 c44 -26 44 -26 26 -50 -15 -21 -22
-24 -57 -19 -48 7 -53 11 -61 52 -5 27 -3 32 17 36 13 2 25 5 27 6 2 0 23 -11
48 -25z m2091 -696 c-3 -8 -6 -5 -6 6 -1 11 2 17 5 13 3 -3 4 -12 1 -19z"/>
</g>
</svg>
